Coordinates
nRows=12
nColumns=24

# SIMM Motion File Header:
name Coordinates
datacolumns 24
datarows 12
otherdata 1
range 0.92000000000000004000 0.93100000000000005000
endheader
time	pelvis_tx	pelvis_ty	pelvis_tz	pelvis_tilt	pelvis_list	pelvis_rotation	hip_flexion_r	hip_adduction_r	hip_rotation_r	knee_angle_r	ankle_angle_r	subtalar_angle_r	mtp_angle_r	hip_flexion_l	hip_adduction_l	hip_rotation_l	knee_angle_l	ankle_angle_l	subtalar_angle_l	mtp_angle_l	lumbar_extension	lumbar_bending	lumbar_rotation
      0.92000000000000004000	      0.60013570562305696000	      1.03806634327413680000	      0.04059164402701857800	      5.00037917274916130000	     -1.11057634138947230000	      2.27864966288375510000	      4.66192139296695360000	      2.21001781482733950000	     -5.95621616639445150000	    -16.51743909401084700000	      6.39294920057926140000	      0.79414800180040424000	      0.88826098075141680000	     11.59870167337384900000	     -5.59378543743245340000	     -4.04669339049579960000	    -68.63750425144540700000	     -0.68292026761800906000	     -2.03519273197066620000	     -2.03607172918825620000	    -15.47875404294314100000	      3.77019104674067180000	     -1.80410407607656160000
      0.92100000000000004000	      0.60004752296216046000	      1.03821565339845060000	      0.04072762947397966900	      5.00399646912460840000	     -1.09358565443395770000	      2.25469531193323870000	      4.55354300773954980000	      2.20594102662542960000	     -5.92327276711604430000	    -16.43715521697057700000	      6.40176124133112620000	      0.77211079698850515000	      0.91087285522772488000	     11.70935066246256000000	     -5.56029125097727570000	     -4.04086688342582700000	    -68.59983009709559100000	     -0.60221225964515224000	     -2.03189373347543350000	     -2.05014170241886170000	    -15.48652761507118900000	      3.74229856599396800000	     -1.76634848479185780000
      0.92200000000000004000	      0.59995934030126397000	      1.03836496352276430000	      0.04086361492094076800	      5.00761376550005540000	     -1.07659496747844300000	      2.23074096098272220000	      4.44516462251214680000	      2.20186423842351960000	     -5.89032936783763720000	    -16.35687133993030800000	      6.41057328208299020000	      0.75007359217660607000	      0.93348472970403429000	     11.81999965155127100000	     -5.52679706452209810000	     -4.03504037635585530000	    -68.56215594274577500000	     -0.52150425167229575000	     -2.02859473498020120000	     -2.06421167564946730000	    -15.49430118719923800000	      3.71440608524726420000	     -1.72859289350715390000
      0.92300000000000004000	      0.59986972706609021000	      1.03851205362314960000	      0.04099774797431075800	      5.01121858917908990000	     -1.05938419301313540000	      2.20652361597178400000	      4.33714604006150320000	      2.19725953633728910000	     -5.85736545841579390000	    -16.27707934629030700000	      6.41748057174188260000	      0.72998577328526715000	      0.95935060744467571000	     11.92961741995225500000	     -5.49231069167562320000	     -4.02847599883998960000	    -68.51981978393588700000	     -0.44257510126327815000	     -2.02482904638310360000	     -2.07754159326355700000	    -15.50223743837985100000	      3.68629589394194660000	     -1.69100539092751270000
      0.92400000000000004000	      0.59977963697282388000	      1.03865840371555860000	      0.04113126356315038200	      5.01481925529265200000	     -1.04210005604456350000	      2.18221860627403920000	      4.22924739186977840000	      2.19247886295628550000	     -5.82439471227947080000	    -16.19745131378372700000	      6.42375294436978450000	      0.71054774970078149000	      0.98630115294009446000	     12.03889144812399400000	     -5.45749359003204850000	     -4.02166566450882620000	    -68.47592962363930300000	     -0.36423890337554016000	     -2.02090779441871770000	     -2.09062482567214180000	    -15.51022791591131900000	      3.65811313245042460000	     -1.65347391791622520000
      0.92500000000000004000	      0.59968906274121725000	      1.03880390314773650000	      0.04126413139726390500	      5.01840852955964860000	     -1.02471394116743060000	      2.15783142326335350000	      4.12149975595565810000	      2.18747740988369530000	     -5.79145637035521600000	    -16.11812755329860600000	      6.43123260858492700000	      0.69266157299074516000	      1.01140604615203240000	     12.14780573196329000000	     -5.42232415660244090000	     -4.01464293117719780000	    -68.43041152164796900000	     -0.28653014827988871000	     -2.01691900494806920000	     -2.10346263419199000000	    -15.51826469110018400000	      3.62982534098362120000	     -1.61601820275144540000
      0.92600000000000005000	      0.59959703609458936000	      1.03894685059921990000	      0.04139505596719914000	      5.02196362828694820000	     -1.00702189256461570000	      2.13319772031384640000	      4.01420515687435220000	      2.18181361773634790000	     -5.75861524106716520000	    -16.03971660887787100000	      6.44233414756178210000	      0.67943093690404932000	      1.03097398251353820000	     12.25564078280525100000	     -5.38609772781473420000	     -4.00698300084417620000	    -68.38000959457235700000	     -0.21070372156049391000	     -2.01272760295863410000	     -2.11556417104562920000	    -15.52644035926124000000	      3.60122245959097280000	     -1.57878976112618740000
      0.92700000000000005000	      0.59950500944796148000	      1.03908979805070350000	      0.04152598053713437600	      5.02551872701424780000	     -0.98932984396180068000	      2.10856401736433870000	      3.90691055779304540000	      2.17614982558900080000	     -5.72577411177911340000	    -15.96130566445713400000	      6.45343568653863730000	      0.66620030081735337000	      1.05054191887504380000	     12.36347583364721300000	     -5.34987129902702830000	     -3.99932307051115420000	    -68.32960766749675900000	     -0.13487729484109909000	     -2.00853620096919850000	     -2.12766570789926800000	    -15.53461602742229700000	      3.57261957819832430000	     -1.54156131950092920000
      0.92800000000000005000	      0.59941157461278960000	      1.03922995518990020000	      0.04165501604212768600	      5.02899016111859700000	     -0.97129001847241703000	      2.08370254365921380000	      3.80016005533360880000	      2.16978581740968400000	     -5.69304899147295980000	    -15.88407173181527700000	      6.47236164555983780000	      0.65882921790881943000	      1.05775733355726900000	     12.47027131292183600000	     -5.31262171823664890000	     -3.99117889178076000000	    -68.27435894869600500000	     -0.06089455709588607200	     -2.00441057930725460000	     -2.13914919797020400000	    -15.54286762228526600000	      3.54364611830497500000	     -1.50459154529354970000
      0.92900000000000005000	      0.59931767038143646000	      1.03936918222500150000	      0.04178342185880702700	      5.03243370701529620000	     -0.95313426735417750000	      2.05876514636888340000	      3.69359091841479480000	      2.16318840388637850000	     -5.66036254082743890000	    -15.80723013643304700000	      6.49389574459581010000	      0.65341131939300001000	      1.06085524101308000000	     12.57672026834068300000	     -5.27503108677871250000	     -3.98287329691790810000	    -68.21749463265354100000	      0.01247361765793493000	     -2.00030688442114090000	     -2.15042667244690610000	    -15.55114452604887300000	      3.51454913224472550000	     -1.46770799355879580000
      0.93000000000000005000	      0.59922335110112945000	      1.03950752256515640000	      0.04191128897666023000	      5.03583878309114660000	     -0.93488584876811265000	      2.03376487786046180000	      3.58720149677149670000	      2.15640618918843920000	     -5.62769011169061000000	    -15.73074857668425800000	      6.51813087946607620000	      0.64958531601577529000	      1.05961612460693330000	     12.68287157655406400000	     -5.23717299985092310000	     -3.97445724232157540000	    -68.15919086964575500000	      0.08527604057129699300	     -1.99617351566040440000	     -2.16153851246137440000	    -15.55942768255141400000	      3.48535077062329490000	     -1.43090489322775460000
      0.93100000000000005000	      0.59912778667396105000	      1.03964320282047180000	      0.04203753999803506300	      5.03912844970445130000	     -0.91635942777857327000	      2.00857599569776650000	      3.48135122095474390000	      2.14906957096660190000	     -5.59505974707985750000	    -15.65534712383579400000	      6.55046912183918280000	      0.65053499805431259000	      1.04536593661497260000	     12.78812994315105600000	     -5.19851254651357750000	     -3.96570980852480040000	    -68.09656876574203500000	      0.15638120796329003000	     -1.99195112527579910000	     -2.17215344908914340000	    -15.56772959727075900000	      3.45584828231832080000	     -1.39434314710784960000
